<mxfile host="app.diagrams.net" modified="2022-06-14T13:53:33.338Z" agent="5.0 (Macintosh; Intel Mac OS X 10_15_7) AppleWebKit/537.36 (KHTML, like Gecko) Chrome/102.0.0.0 Safari/537.36" etag="sNvRGwZ0aUHX_4S0mRwd" version="16.4.3" type="github">
  <diagram id="6PFhWyaD1CNVweBsUem0" name="Page-1">
    <mxGraphModel dx="1298" dy="761" grid="1" gridSize="10" guides="1" tooltips="1" connect="1" arrows="1" fold="1" page="1" pageScale="1" pageWidth="850" pageHeight="1100" math="0" shadow="0">
      <root>
        <mxCell id="0" />
        <mxCell id="1" parent="0" />
        <mxCell id="IlmxFWQtKXXrp_6SwzFO-1" value="OMS Order Update Event" style="rounded=0;whiteSpace=wrap;html=1;" vertex="1" parent="1">
          <mxGeometry x="100" y="70" width="120" height="60" as="geometry" />
        </mxCell>
        <mxCell id="IlmxFWQtKXXrp_6SwzFO-2" value="SAP PI" style="whiteSpace=wrap;html=1;aspect=fixed;" vertex="1" parent="1">
          <mxGeometry x="120" y="170" width="80" height="80" as="geometry" />
        </mxCell>
        <mxCell id="IlmxFWQtKXXrp_6SwzFO-3" value="LeanPOS order-fulfillment-service" style="whiteSpace=wrap;html=1;aspect=fixed;" vertex="1" parent="1">
          <mxGeometry x="120" y="300" width="80" height="80" as="geometry" />
        </mxCell>
        <mxCell id="IlmxFWQtKXXrp_6SwzFO-4" value="" style="endArrow=classic;html=1;rounded=0;exitX=0.5;exitY=1;exitDx=0;exitDy=0;" edge="1" parent="1" source="IlmxFWQtKXXrp_6SwzFO-1" target="IlmxFWQtKXXrp_6SwzFO-2">
          <mxGeometry width="50" height="50" relative="1" as="geometry">
            <mxPoint x="400" y="390" as="sourcePoint" />
            <mxPoint x="450" y="340" as="targetPoint" />
          </mxGeometry>
        </mxCell>
        <mxCell id="IlmxFWQtKXXrp_6SwzFO-8" value="" style="endArrow=classic;html=1;rounded=0;exitX=0.5;exitY=1;exitDx=0;exitDy=0;entryX=0.5;entryY=0;entryDx=0;entryDy=0;" edge="1" parent="1" source="IlmxFWQtKXXrp_6SwzFO-2" target="IlmxFWQtKXXrp_6SwzFO-3">
          <mxGeometry width="50" height="50" relative="1" as="geometry">
            <mxPoint x="400" y="390" as="sourcePoint" />
            <mxPoint x="450" y="340" as="targetPoint" />
          </mxGeometry>
        </mxCell>
        <mxCell id="IlmxFWQtKXXrp_6SwzFO-9" value="LP&lt;br&gt;ms-quote-service" style="whiteSpace=wrap;html=1;aspect=fixed;" vertex="1" parent="1">
          <mxGeometry x="120" y="420" width="80" height="80" as="geometry" />
        </mxCell>
        <mxCell id="IlmxFWQtKXXrp_6SwzFO-16" value="" style="edgeStyle=orthogonalEdgeStyle;rounded=0;orthogonalLoop=1;jettySize=auto;html=1;" edge="1" parent="1" source="IlmxFWQtKXXrp_6SwzFO-10" target="IlmxFWQtKXXrp_6SwzFO-11">
          <mxGeometry relative="1" as="geometry" />
        </mxCell>
        <mxCell id="IlmxFWQtKXXrp_6SwzFO-10" value="Interested Event" style="rhombus;whiteSpace=wrap;html=1;" vertex="1" parent="1">
          <mxGeometry x="280" y="420" width="80" height="80" as="geometry" />
        </mxCell>
        <mxCell id="IlmxFWQtKXXrp_6SwzFO-11" value="Read the message and update orderLedger" style="whiteSpace=wrap;html=1;aspect=fixed;" vertex="1" parent="1">
          <mxGeometry x="420" y="420" width="80" height="80" as="geometry" />
        </mxCell>
        <mxCell id="IlmxFWQtKXXrp_6SwzFO-12" value="log the message" style="whiteSpace=wrap;html=1;aspect=fixed;" vertex="1" parent="1">
          <mxGeometry x="287" y="530" width="80" height="80" as="geometry" />
        </mxCell>
        <mxCell id="IlmxFWQtKXXrp_6SwzFO-13" value="" style="endArrow=classic;html=1;rounded=0;exitX=0.5;exitY=1;exitDx=0;exitDy=0;entryX=0.5;entryY=0;entryDx=0;entryDy=0;" edge="1" parent="1" source="IlmxFWQtKXXrp_6SwzFO-3" target="IlmxFWQtKXXrp_6SwzFO-9">
          <mxGeometry width="50" height="50" relative="1" as="geometry">
            <mxPoint x="170" y="260" as="sourcePoint" />
            <mxPoint x="170" y="310" as="targetPoint" />
          </mxGeometry>
        </mxCell>
        <mxCell id="IlmxFWQtKXXrp_6SwzFO-14" value="" style="endArrow=classic;html=1;rounded=0;exitX=1;exitY=0.5;exitDx=0;exitDy=0;entryX=0;entryY=0.5;entryDx=0;entryDy=0;" edge="1" parent="1" source="IlmxFWQtKXXrp_6SwzFO-9" target="IlmxFWQtKXXrp_6SwzFO-10">
          <mxGeometry width="50" height="50" relative="1" as="geometry">
            <mxPoint x="170" y="390" as="sourcePoint" />
            <mxPoint x="170" y="430" as="targetPoint" />
          </mxGeometry>
        </mxCell>
        <mxCell id="IlmxFWQtKXXrp_6SwzFO-17" value="" style="edgeStyle=orthogonalEdgeStyle;rounded=0;orthogonalLoop=1;jettySize=auto;html=1;exitX=0.5;exitY=1;exitDx=0;exitDy=0;entryX=0.425;entryY=0.013;entryDx=0;entryDy=0;entryPerimeter=0;" edge="1" parent="1" source="IlmxFWQtKXXrp_6SwzFO-10" target="IlmxFWQtKXXrp_6SwzFO-12">
          <mxGeometry relative="1" as="geometry">
            <mxPoint x="370" y="470" as="sourcePoint" />
            <mxPoint x="320" y="520" as="targetPoint" />
          </mxGeometry>
        </mxCell>
      </root>
    </mxGraphModel>
  </diagram>
</mxfile>
